<svg width="82" height="40" viewBox="0 0 82 40" fill="none" xmlns="http://www.w3.org/2000/svg">
<path fill-rule="evenodd" clip-rule="evenodd" d="M23.0885 24.2184C23.1612 24.5093 23.3066 24.8729 23.4521 25.1638C23.743 26.1093 23.8885 26.982 23.6703 27.8547C23.3794 29.7456 22.143 31.3456 20.3248 32.0729C19.743 32.3638 19.0157 32.5093 18.2885 32.5093C18.1794 32.5093 18.0703 32.4911 17.9612 32.4729L17.9612 32.4729L17.9612 32.4729C17.8521 32.4547 17.743 32.4366 17.6339 32.4366C16.8339 32.2911 15.9612 32.0729 15.0885 31.5638C14.0703 30.982 12.9794 30.182 11.8885 28.9457C10.7248 30.1093 9.70664 30.982 8.68846 31.5638C7.88846 32.0729 7.01573 32.3638 6.143 32.4366C5.92482 32.5093 5.70664 32.5093 5.48846 32.5093C4.76118 32.5093 4.03391 32.3638 3.52482 32.2184C1.70664 31.4911 0.470276 29.8911 0.179367 28.0002C0.0339123 27.0547 0.10664 26.182 0.470276 25.2366C0.543003 24.8729 0.688458 24.582 0.833912 24.2911C0.919974 24.0903 1.00603 23.9121 1.08763 23.7432C1.2129 23.4838 1.32765 23.2463 1.41573 22.982V22.9093C3.16119 19.1275 5.05209 15.2729 7.08846 11.4184L7.16119 11.2729C7.25621 11.0354 7.38228 10.7978 7.51911 10.5399L7.51912 10.5399C7.59173 10.4031 7.66737 10.2606 7.743 10.1093C7.82449 9.98706 7.90598 9.85912 7.98906 9.72867C8.20259 9.39342 8.42668 9.0416 8.68846 8.72747C9.56118 7.78201 10.6521 7.2002 11.9612 7.2002C13.2703 7.2002 14.4339 7.78201 15.2339 8.8002C15.5365 9.10276 15.7341 9.44029 15.9239 9.7643L15.9239 9.76434L15.9239 9.76438C16.0078 9.90763 16.0902 10.0482 16.1794 10.182C16.3248 10.5457 16.543 10.982 16.7612 11.3456L16.8339 11.4911C18.8703 15.2729 20.7612 19.1275 22.5066 22.9093C22.6521 23.3456 22.8703 23.782 23.0885 24.2184ZM43.1612 13.5275C43.1612 14.4729 42.4339 15.2002 41.4885 15.2002C40.543 15.2002 39.8157 14.4729 39.8157 13.5275C39.8157 12.582 40.543 11.8547 41.4885 11.8547C42.4339 11.9275 43.1612 12.6547 43.1612 13.5275ZM36.3248 16.8729V17.3093C36.3248 17.3093 35.5248 16.2911 33.8521 16.2911C31.0885 16.2911 28.9066 18.4002 28.9066 21.3093C28.9066 24.2184 31.0885 26.3275 33.8521 26.3275C35.5975 26.3275 36.3248 25.3093 36.3248 25.3093V25.7456C36.3248 25.9638 36.4703 26.1093 36.6885 26.1093H38.7248V16.5093H36.6885C36.4703 16.5093 36.3248 16.7275 36.3248 16.8729ZM34.2885 24.0002C35.1612 24.0002 35.9612 23.5638 36.3248 22.982V19.4911C36.0339 18.982 35.1612 18.4729 34.2885 18.4729C32.6157 18.4729 31.3794 19.4911 31.3794 21.2366C31.3794 22.982 32.6157 24.0002 34.2885 24.0002ZM42.7248 26.0366V16.5093H40.2521V26.0366H42.7248ZM74.5066 17.3093C74.5066 17.3093 75.3066 16.2911 76.9794 16.2911C79.743 16.2911 81.8521 18.4002 81.8521 21.3093C81.8521 24.2184 79.6703 26.3275 76.9066 26.3275C75.2339 26.3275 74.4339 25.3093 74.4339 25.3093V25.7457C74.4339 25.9638 74.2885 26.1093 74.0703 26.1093H72.0339V12.0002H74.5066V17.3093ZM76.543 24.0002C75.5975 24.0002 74.8703 23.4911 74.5066 22.982V19.5638C74.8703 19.0547 75.743 18.5456 76.543 18.5456C78.2157 18.5456 79.4521 19.5638 79.4521 21.3093C79.4521 23.0547 78.2157 24.0002 76.543 24.0002ZM70.7248 26.0366V20.3638C70.7248 18.8366 70.4339 17.8911 69.5612 17.2366C68.8339 16.582 67.9612 16.2911 66.8703 16.2911C65.9248 16.2911 64.9794 16.582 64.2521 17.3093V16.8729C64.2521 16.6547 64.1066 16.5093 63.8885 16.5093H61.9248V26.0366H64.3975V19.4184C64.8339 18.8366 65.6339 18.4729 66.3612 18.4729C67.743 18.4729 68.2521 19.0547 68.2521 20.6547V26.0366H70.7248ZM55.9612 16.2911C54.2885 16.2911 53.4885 17.3093 53.4885 17.3093V12.0002H51.0157V26.1093H53.0521C53.2703 26.1093 53.4157 25.9638 53.4157 25.7457V25.3093C53.4157 25.3093 54.2157 26.3275 55.8885 26.3275C58.6521 26.3275 60.8339 24.2184 60.8339 21.3093C60.9794 18.4002 58.7976 16.2911 55.9612 16.2911ZM53.5612 22.982C53.9248 23.4911 54.6521 24.0002 55.5975 24.0002C57.1975 24.0002 58.5066 23.0547 58.5066 21.3093C58.5066 19.5638 57.2703 18.5456 55.5975 18.5456C54.7975 18.5456 53.9248 19.0547 53.5612 19.5638V22.982ZM48.9066 16.2911C49.6339 16.2911 49.9976 16.4366 49.9976 16.4366V18.6911C49.9976 18.6911 47.9612 18.0366 46.6521 19.4184V26.1093H44.1794V16.5093H46.2157C46.4339 16.5093 46.5794 16.6547 46.5794 16.8729V17.3093C47.1612 16.7275 48.1794 16.2911 48.9066 16.2911ZM11.8885 26.4729C10.5066 24.7275 9.63391 23.1275 9.27028 21.7457C9.12482 21.1638 9.12482 20.6547 9.19755 20.2184C9.27028 19.782 9.41573 19.4911 9.63391 19.1275C10.143 18.4729 10.943 18.0366 11.8885 18.0366C12.8339 18.0366 13.7066 18.4729 14.143 19.1275C14.3612 19.4184 14.5066 19.782 14.5794 20.2184C14.6521 20.6547 14.6521 21.2366 14.5066 21.7457C14.143 23.1275 13.2703 24.7275 11.8885 26.4729ZM19.743 30.6911C20.9794 30.182 21.9248 29.0184 22.0703 27.7093C22.2157 27.0547 22.143 26.4002 21.8521 25.7456C21.7794 25.5275 21.6339 25.2366 21.4885 24.9457C21.36 24.7316 21.2568 24.4923 21.149 24.2426C21.0738 24.0682 20.9964 23.8888 20.9066 23.7093C19.1612 19.9275 17.2703 16.0729 15.3066 12.2911L15.2339 12.1456C15.0885 11.782 14.8703 11.3456 14.6521 10.982C14.4339 10.6184 14.2157 10.2547 13.9248 9.8911C13.4157 9.30929 12.6885 8.94565 11.8885 8.94565C11.0885 8.94565 10.3612 9.30929 9.85209 9.8911C9.56119 10.182 9.343 10.5456 9.12482 10.982C8.97937 11.3456 8.76119 11.782 8.543 12.1456L8.47028 12.2911C6.50664 16.0002 4.61573 19.8547 2.87028 23.6366V23.7093C2.81454 23.8208 2.75881 23.9275 2.70429 24.0319C2.54537 24.3362 2.39676 24.6208 2.28846 24.9457C2.143 25.2366 1.99755 25.5275 1.92482 25.7456C1.70664 26.4729 1.63391 27.0547 1.70664 27.7093C1.85209 29.0184 2.79755 30.182 4.03391 30.6911C4.61573 30.9093 5.27028 30.982 5.99755 30.9093C6.65209 30.8366 7.30664 30.6184 7.96119 30.2547C8.90664 29.7457 9.85209 28.9456 10.8703 27.782C9.19755 25.7456 8.10664 23.8547 7.743 22.182C7.52482 21.382 7.52482 20.6547 7.59755 20.0002C7.67028 19.3456 7.88846 18.7638 8.25209 18.2547C9.05209 17.0911 10.4339 16.4366 11.8885 16.4366C13.4157 16.4366 14.7248 17.0911 15.5248 18.2547C15.8157 18.7638 16.1066 19.3456 16.1794 20.0002C16.2521 20.6547 16.1794 21.382 16.0339 22.182C15.5975 23.8547 14.5794 25.7456 12.9066 27.782C13.9975 28.9456 14.8703 29.7457 15.8157 30.2547C16.4703 30.6184 17.1248 30.8366 17.7794 30.9093C18.4339 31.0547 19.1612 30.9093 19.743 30.6911Z" fill="#9AAA97"/>
</svg>
