<svg width="148" height="40" viewBox="0 0 148 40" fill="none" xmlns="http://www.w3.org/2000/svg">
<path fill-rule="evenodd" clip-rule="evenodd" d="M57.9922 19.9585C57.9922 17.9221 56.5177 16.1766 53.7899 16.1766C51.0622 16.1766 49.5877 17.9948 49.5877 19.9585V20.1766C49.5877 22.213 51.0622 24.0312 53.7899 24.0312C56.5177 24.0312 57.9922 22.213 57.9922 20.1766V19.9585ZM53.7899 25.7039C50.03 25.7039 47.5972 23.013 47.5972 20.2494V19.9585C47.5972 17.1221 50.03 14.5039 53.7899 14.5039C57.5498 14.5039 59.9827 17.1221 59.9827 19.9585V20.3221C59.9827 23.0857 57.5498 25.7039 53.7899 25.7039Z" fill="#9AAA97"/>
<path fill-rule="evenodd" clip-rule="evenodd" d="M6.68054 16.9039L4.39511 21.2676H9.11342L6.68054 16.9039ZM11.3251 25.3403L9.92438 22.7948H3.65788L2.33085 25.3403H0.192871L5.94331 14.8676H7.56522L13.3894 25.2676H11.3251V25.3403Z" fill="#9AAA97"/>
<path fill-rule="evenodd" clip-rule="evenodd" d="M22.5088 25.7455C18.6751 25.7455 16.9058 23.7091 16.9058 21.0182V14.9091H18.8963V21.0182C18.8963 22.9091 20.2233 24.0728 22.6562 24.0728C25.1628 24.0728 26.1949 22.9091 26.1949 21.0182V14.9091H28.1855V21.0182C28.1855 23.5637 26.4898 25.7455 22.5088 25.7455Z" fill="#9AAA97"/>
<path fill-rule="evenodd" clip-rule="evenodd" d="M39.244 16.5091V25.3091H37.2535V16.5091H32.6089V14.9091H43.8886V16.5091H39.244Z" fill="#9AAA97"/>
<path fill-rule="evenodd" clip-rule="evenodd" d="M77.7278 25.3091V17.0909L77.2117 17.9637L72.7883 25.3091H71.8299L67.4065 17.9637L66.8904 17.0909V25.3091H64.9736V14.9091H67.7014L71.9036 22.0364L72.346 22.9091L72.8621 22.0364L76.9906 14.9091H79.7183V25.3091H77.7278Z" fill="#9AAA97"/>
<path fill-rule="evenodd" clip-rule="evenodd" d="M90.2606 16.9455L87.9752 21.3091H92.6935L90.2606 16.9455ZM94.8315 25.3091L93.4307 22.7637H87.1642L85.8372 25.3091H83.6992L89.4497 14.9091H91.0716L96.8957 25.3091H94.8315Z" fill="#9AAA97"/>
<path fill-rule="evenodd" clip-rule="evenodd" d="M105.005 16.5091V25.3091H103.015V16.5091H98.3701V14.9091H109.65V16.5091H105.005Z" fill="#9AAA97"/>
<path fill-rule="evenodd" clip-rule="evenodd" d="M119.602 16.5091V25.3091H117.612V16.5091H112.967V14.9091H124.247V16.5091H119.602Z" fill="#9AAA97"/>
<path fill-rule="evenodd" clip-rule="evenodd" d="M129.187 25.3091V15.8545C129.997 15.8545 130.292 15.4182 130.292 14.8364H131.103V25.2364H129.187" fill="#9AAA97"/>
<path fill-rule="evenodd" clip-rule="evenodd" d="M146.733 17.8182C145.774 16.9455 144.374 16.1455 142.457 16.1455C139.655 16.1455 138.033 18.0364 138.033 20.0727V20.2909C138.033 22.2546 139.655 24.0727 142.604 24.0727C144.374 24.0727 145.848 23.2727 146.733 22.4L147.912 23.6364C146.733 24.7273 144.742 25.7455 142.457 25.7455C138.476 25.7455 135.969 23.2 135.969 20.3637V20C135.969 17.1637 138.623 14.5455 142.531 14.5455C144.742 14.5455 146.807 15.4909 147.912 16.6546L146.733 17.8182Z" fill="#9AAA97"/>
<path fill-rule="evenodd" clip-rule="evenodd" d="M55.0943 18.1091C55.463 18.3273 55.5367 18.8364 55.3155 19.1273L53.4724 21.8909C53.2513 22.2545 52.7352 22.3273 52.3666 22.1091C51.998 21.8909 51.9242 21.3818 52.1454 21.0909L53.9885 18.3273C54.2834 18.0364 54.7257 17.8909 55.0943 18.1091Z" fill="#9AAA97"/>
</svg>
