<svg width="80" height="40" viewBox="0 0 80 40" fill="none" xmlns="http://www.w3.org/2000/svg">
<path fill-rule="evenodd" clip-rule="evenodd" d="M52.4152 16.6665C52.4152 16.0739 52.7855 15.4072 53.7485 15.4072C54.5633 15.4072 55.0078 15.9998 55.0818 16.6665C55.0818 17.3332 54.5633 17.9257 53.7485 17.9257C52.7855 17.9257 52.4152 17.2591 52.4152 16.6665ZM54.7115 16.6665C54.7115 16.0739 54.3411 15.7035 53.7485 15.7035C53.1559 15.7035 52.7115 16.0739 52.7115 16.6665C52.7115 17.185 53.1559 17.6294 53.7485 17.6294C54.3411 17.6294 54.7115 17.2591 54.7115 16.6665ZM53.4522 16.8146H53.6744L53.9707 17.3332H54.3411L53.9707 16.7406C54.1929 16.7406 54.3411 16.5924 54.3411 16.3702C54.3411 16.0739 54.1929 15.9257 53.8966 15.9257H53.0818V17.3332H53.4522V16.8146ZM54.0448 16.3702C54.0448 16.222 53.8966 16.222 53.7485 16.222V16.148H53.4522V16.5183H53.8226C53.9707 16.5183 54.0448 16.5183 54.0448 16.3702Z" fill="#9AAA97"/>
<path d="M11.8226 18.2964H13.3782V25.3334H11.8967L11.8226 18.2964Z" fill="#9AAA97"/>
<path d="M11.8226 15.4814H13.3782V17.7037H11.8226V15.4814Z" fill="#9AAA97"/>
<path d="M46.9337 15.4072H48.4893V25.2591H47.0078L46.9337 15.4072Z" fill="#9AAA97"/>
<path d="M49.5264 15.4072H51.0819V25.2591H49.6004L49.5264 15.4072Z" fill="#9AAA97"/>
<path fill-rule="evenodd" clip-rule="evenodd" d="M0.192993 18.2964H8.63744C10.0448 18.2964 10.4893 19.4075 10.4152 20.0001C10.4152 20.6668 10.1189 21.2593 9.74855 21.4075C10.4152 21.7038 10.9337 22.5186 10.8597 23.2593C10.7856 25.1112 8.93373 25.2593 8.19299 25.2593H0.192993V18.2964ZM8.04485 24.2223C8.63744 24.2223 9.15596 23.7779 9.15596 23.1853C9.15596 22.5927 8.63744 22.0742 8.04485 22.0742H1.67447V24.1482L8.04485 24.2223ZM8.78559 20.2223C8.78559 20.7408 8.34114 21.1112 7.82262 21.1112L1.67447 21.0371V19.3334H7.82262C8.34114 19.3334 8.78559 19.7038 8.78559 20.2223Z" fill="#9AAA97"/>
<path d="M38.7855 18.2962C38.193 18.2962 36.9337 18.5925 36.8596 19.7777C36.8596 20.8148 37.4522 21.3333 37.7485 21.4074C37.3041 21.6296 36.8596 22.4444 36.8596 23.1111C36.8596 23.8518 37.1559 25.2592 39.5263 25.2592H46.0448V24.2222H39.7485C39.1559 24.2222 38.6374 23.7777 38.6374 23.1851C38.6374 22.5925 39.1559 22.074 39.7485 22.074H45.7485V21.037H39.6004C39.0818 21.037 38.6374 20.6666 38.6374 20.1481C38.6374 19.6296 39.0818 19.2592 39.6004 19.2592H46.0448V18.2222L38.7855 18.2962Z" fill="#9AAA97"/>
<path d="M34.119 20.4444H35.6745C35.6745 18.7407 34.8597 18.2222 32.7115 18.2222H28.4893C27.5264 18.2222 25.8967 18.6666 25.8967 20.074C25.8967 21.4814 26.4893 22.074 28.193 22.074H33.2301C33.8227 22.074 34.4152 22.4444 34.4152 23.1111C34.4152 23.7777 34.0449 24.2222 33.0078 24.2222H29.0078C28.4893 24.2222 27.4523 24.1481 27.4523 23.1111H25.8967C25.8967 23.9999 26.0449 25.3333 28.4152 25.3333H33.3782C34.3412 25.3333 35.9708 24.8888 35.9708 23.1111C35.9708 21.3333 34.4893 21.1111 33.6004 21.1111H28.5634C27.7486 21.1111 27.4523 20.5925 27.4523 20.2222C27.4523 19.8518 27.7486 19.3333 28.5634 19.3333H32.9338C33.6745 19.3333 34.119 19.6296 34.119 20.4444Z" fill="#9AAA97"/>
<path d="M23.23 20.4444H24.7856C24.7856 18.7407 23.9708 18.2222 21.8226 18.2222H17.6004C16.6374 18.2222 15.0078 18.6666 15.0078 20.074C15.0078 21.4814 15.6004 22.074 17.3041 22.074H22.3411C22.9337 22.074 23.5263 22.4444 23.5263 23.1111C23.5263 23.7777 23.1559 24.2222 22.1189 24.2222H18.1189C17.6004 24.2222 16.5633 24.1481 16.5633 23.1111H14.9337C14.9337 23.9999 15.0819 25.3333 17.4522 25.3333H22.4152C23.3782 25.3333 25.0078 24.8888 25.0078 23.1111C25.0078 21.3333 23.5263 21.1111 22.6374 21.1111H17.6004C16.7856 21.1111 16.4893 20.5925 16.4893 20.2222C16.4893 19.8518 16.7856 19.3333 17.6004 19.3333H21.9708C22.7856 19.3333 23.23 19.6296 23.23 20.4444Z" fill="#9AAA97"/>
<path fill-rule="evenodd" clip-rule="evenodd" d="M46.5633 37.8517C48.9337 37.8517 47.9707 35.7035 47.5263 34.9628C46.8596 33.9257 43.6004 28.1479 43.6004 28.1479H8.19295C8.19295 28.1479 4.93369 33.8517 4.26702 34.9628C3.82258 35.7035 2.93369 37.7776 5.30406 37.7776L46.5633 37.8517Z" fill="#9AAA97"/>
<path fill-rule="evenodd" clip-rule="evenodd" d="M14.9083 15.5421H36.3898C36.3898 15.5421 30.9824 5.91244 29.7231 3.76429C28.538 1.76429 27.8713 0.801328 25.575 0.801328C23.2787 0.727254 22.6861 1.69022 21.4268 3.76429C20.3157 5.76429 14.9083 15.5421 14.9083 15.5421Z" fill="#9AAA97"/>
</svg>
