<svg width="111" height="40" viewBox="0 0 111 40" fill="none" xmlns="http://www.w3.org/2000/svg">
<path fill-rule="evenodd" clip-rule="evenodd" d="M22.6929 9.0466C20.0615 7.37664 16.5973 7.77451 13.5077 9.74641C10.4277 7.77451 6.96134 7.37664 4.33314 9.0466C0.175678 11.6856 -0.329786 18.482 3.20524 24.2277C5.8109 28.4636 9.88573 30.9456 13.513 30.8999C17.1404 30.9456 21.2152 28.4636 23.8208 24.2277C27.3516 18.482 26.8504 11.6856 22.6929 9.0466ZM5.11656 23.0145C4.38765 21.8408 3.83769 20.5619 3.48534 19.2211C3.17229 18.0573 3.0526 16.8485 3.13119 15.6447C3.28895 13.5212 4.13997 11.8676 5.52651 10.988C6.91304 10.1083 8.74602 10.0549 10.6981 10.8419C10.9911 10.9607 11.2808 11.0981 11.5685 11.2496C10.4837 12.2543 9.54043 13.406 8.76534 14.6723C6.61899 18.1605 5.96436 22.0421 6.71343 25.1368C6.11615 24.4823 5.58145 23.7717 5.11656 23.0145ZM21.9106 23.0134C22.6391 21.8394 23.189 20.5606 23.5418 19.22C23.8531 18.0555 23.9713 16.8464 23.8917 15.6425C23.7339 13.5191 22.884 11.8665 21.4964 10.9858C20.1088 10.105 18.2726 10.0527 16.3258 10.8397C15.228 11.2962 14.2125 11.935 13.3209 12.7299C11.2535 14.5671 9.7668 16.9839 9.04758 19.6767C8.735 20.8407 8.61532 22.0493 8.69343 23.2532C8.85119 25.3755 9.70221 27.0291 11.0898 27.9099C11.8049 28.3542 12.6244 28.5952 13.4626 28.6075H13.5688C14.407 28.5949 15.2265 28.354 15.9416 27.9099C17.3282 27.0291 18.1792 25.3755 18.3369 23.2532C18.4148 22.0507 18.2947 20.8435 17.9817 19.6811C17.9012 19.3541 17.7939 19.0271 17.6866 18.7001L14.3684 20.806C14.2743 20.8659 14.1607 20.8854 14.0526 20.86C13.9444 20.8346 13.8507 20.7666 13.7921 20.6709L13.0408 19.4511C12.9818 19.3554 12.9627 19.2399 12.9876 19.1298C13.0126 19.0198 13.0796 18.9244 13.1739 18.8647L18.2929 15.6163C18.3915 15.5519 18.5123 15.533 18.6254 15.5641C18.7386 15.5953 18.8334 15.6737 18.8864 15.7798C20.5284 18.9671 20.9834 22.3659 20.3137 25.1401C20.9107 24.4837 21.4453 23.7717 21.9106 23.0134ZM49.9654 16.6835C47.2739 16.6835 45.0986 18.8178 45.0986 21.5331C45.0986 24.2299 47.2739 26.3293 49.9654 26.3293C52.6752 26.3293 54.8505 24.2331 54.8505 21.5331C54.8505 18.8189 52.6784 16.6846 49.9654 16.6846V16.6835ZM47.7805 21.5146C47.7805 22.7747 48.7248 23.7938 49.9654 23.7938V23.7982C51.2243 23.7982 52.1687 22.7779 52.1687 21.5178C52.1687 20.2577 51.2243 19.22 49.9654 19.22C48.7248 19.22 47.7805 20.2545 47.7805 21.5146ZM60.9193 12.9588H55.9666C55.8585 12.9567 55.7542 12.9994 55.6779 13.0772C55.6015 13.155 55.5597 13.261 55.562 13.3708V25.6349C55.5542 25.7485 55.5935 25.8601 55.6703 25.9429C55.7472 26.0257 55.8546 26.0721 55.9666 26.071H60.9193C64.8825 26.071 67.6363 23.3938 67.6363 19.4991C67.6363 15.5803 64.8825 12.9588 60.9193 12.9588ZM58.3265 23.481H61.0363C63.2298 23.481 64.7419 21.7402 64.7419 19.4936C64.7419 17.2089 63.2298 15.5422 61.0363 15.5422H58.3265V23.481ZM77.4944 16.9473H75.6325C75.4191 16.9644 75.2526 17.142 75.2461 17.3593V17.9207C74.8222 17.2089 73.8639 16.6846 72.6705 16.6846C70.3482 16.6846 68.1729 18.5376 68.1729 21.4971C68.1729 24.4402 70.3288 26.3271 72.6523 26.3271C73.8499 26.3271 74.8276 25.8039 75.2515 25.0921V25.672C75.2527 25.8884 75.4248 26.0637 75.6378 26.0655H77.4998C77.6032 26.0679 77.7032 26.0272 77.7763 25.9529C77.8495 25.8786 77.8896 25.7771 77.8872 25.672V17.3593C77.8904 17.2513 77.8504 17.1466 77.7765 17.069C77.7025 16.9914 77.6008 16.9475 77.4944 16.9473ZM71.0039 21.5167C71.0039 22.852 71.93 23.8146 73.1631 23.8146V23.8135C74.3972 23.8135 75.3223 22.851 75.3223 21.5156C75.3223 20.1803 74.3962 19.22 73.1631 19.22C71.93 19.22 71.0039 20.1814 71.0039 21.5167ZM87.946 12.9588H86.0841C85.9788 12.9556 85.8766 12.9954 85.8006 13.0694C85.7245 13.1434 85.6809 13.2453 85.6795 13.3523V17.8836C85.2502 17.2089 84.2779 16.6846 83.062 16.6846C80.7569 16.6846 78.6191 18.5376 78.6191 21.4971C78.6191 24.4402 80.7751 26.3271 83.0985 26.3271C84.2962 26.3271 85.1998 25.8039 85.6977 25.0921V25.672C85.6983 25.8887 85.8708 26.0643 86.0841 26.0655H87.946C88.0496 26.0682 88.1497 26.0276 88.2229 25.9533C88.2962 25.8789 88.3361 25.7772 88.3334 25.672V13.3545C88.3367 13.2489 88.297 13.1467 88.2237 13.0718C88.1504 12.9969 88.05 12.956 87.946 12.9588ZM81.4684 21.5156C81.4684 22.8651 82.387 23.8375 83.6147 23.8375C84.8435 23.8375 85.761 22.8651 85.761 21.5156C85.761 20.1662 84.8392 19.1938 83.6147 19.1938C82.3902 19.1938 81.4684 20.1662 81.4684 21.5156ZM98.3955 12.9588H96.5368C96.4314 12.9556 96.3291 12.9954 96.2529 13.0693C96.1766 13.1433 96.1328 13.2452 96.1311 13.3523V17.8836C95.7072 17.2089 94.7295 16.6846 93.5136 16.6846C91.2085 16.6846 89.0707 18.5376 89.0707 21.4971C89.0707 24.4402 91.2278 26.3271 93.5501 26.3271C94.7488 26.3271 95.6514 25.8039 96.1493 25.0921V25.672C96.1505 25.8888 96.3233 26.0643 96.5368 26.0655H98.3955C98.4989 26.0682 98.5989 26.0276 98.672 25.9532C98.7451 25.8788 98.7848 25.7771 98.7818 25.672V13.3545C98.7854 13.249 98.746 13.1467 98.6728 13.0718C98.5997 12.9969 98.4993 12.956 98.3955 12.9588ZM91.9178 21.5156C91.9178 22.8651 92.8354 23.8375 94.0642 23.8375H94.0674C95.2951 23.8375 96.2105 22.8651 96.2105 21.5156C96.2105 20.1662 95.2887 19.1938 94.0642 19.1938C92.8397 19.1938 91.9178 20.1662 91.9178 21.5156ZM108.591 17.5849L105.812 27.2635C105.276 28.9857 104.079 30.0158 102.217 30.0158C101.37 30.0158 100.6 29.8403 99.9956 29.4893C99.6436 29.2855 99.3517 29.0991 99.3517 28.8004C99.3517 28.6151 99.4107 28.5192 99.518 28.3459L100.07 27.5065C100.225 27.2722 100.34 27.1959 100.507 27.1959C100.64 27.1992 100.768 27.2446 100.875 27.3256C101.221 27.5534 101.543 27.7496 102.034 27.7496C102.607 27.7496 103.044 27.5632 103.281 26.87L103.519 26.0666H102.394C102.157 26.0743 101.947 25.9089 101.896 25.6731L99.4096 17.5849C99.3173 17.2666 99.4021 16.9484 99.8625 16.9484H101.821C102.06 16.9484 102.228 17.0312 102.333 17.3789L104.169 23.892L105.886 17.3789C105.941 17.1544 106.089 16.9484 106.384 16.9484H108.242C108.608 16.9473 108.718 17.2089 108.591 17.5849ZM44.3968 25.6338V20.4638C44.3975 20.3519 44.3528 20.2446 44.2732 20.1672C44.1936 20.0899 44.0861 20.0493 43.9761 20.055H39.2273C39.1152 20.0532 39.0072 20.0976 38.9279 20.1782C38.8486 20.2587 38.8048 20.3684 38.8066 20.4823V21.8874C38.8048 22.0012 38.8486 22.1109 38.9279 22.1915C39.0072 22.272 39.1152 22.3164 39.2273 22.3147H40.8478C40.3402 23.033 39.2509 23.687 37.8848 23.687C35.2877 23.687 33.8926 21.8111 33.8926 19.5296C33.8926 17.1762 35.5313 15.3612 37.8193 15.3612C39.5836 15.3612 40.7297 16.206 41.3736 17.4498C41.4169 17.5542 41.4922 17.6418 41.5883 17.6994C41.6979 17.7415 41.8191 17.7395 41.9274 17.6939L43.7217 16.992C43.9675 16.9058 44.0437 16.8165 44.0437 16.6987C44.0414 16.627 44.0257 16.5563 43.9975 16.4905C42.9909 13.9998 40.7244 12.7615 37.889 12.7615C34.0482 12.7615 31.0079 15.5694 31.0079 19.6429C31.0079 23.5628 33.8239 26.3162 37.4276 26.3162C39.3464 26.3162 41.0431 25.5281 42.0186 24.2767V25.6338C42.0165 25.7478 42.0602 25.8577 42.1395 25.9383C42.2189 26.0189 42.3271 26.0632 42.4393 26.0611H43.9761C44.0882 26.0629 44.1962 26.0185 44.2755 25.938C44.3548 25.8574 44.3985 25.7477 44.3968 25.6338ZM108.641 15.0331V14.9078C108.641 14.899 108.644 14.8905 108.65 14.8838C108.656 14.8782 108.664 14.8751 108.672 14.8751H109.457C109.465 14.8748 109.473 14.8779 109.479 14.8838C109.485 14.8905 109.488 14.899 109.488 14.9078V15.0331C109.488 15.0416 109.485 15.0497 109.479 15.056C109.473 15.0619 109.465 15.065 109.457 15.0647H109.17V15.8507C109.17 15.8685 109.155 15.8828 109.138 15.8834H108.99C108.982 15.8833 108.974 15.8798 108.968 15.8736C108.962 15.8676 108.959 15.8593 108.959 15.8507V15.0647H108.672C108.664 15.0654 108.655 15.0623 108.649 15.0562C108.643 15.0501 108.64 15.0417 108.641 15.0331ZM110.227 15.4081L110.013 14.9034C110.011 14.8952 110.007 14.8876 110.001 14.8816C109.992 14.8771 109.983 14.8748 109.973 14.8751H109.731C109.723 14.8745 109.715 14.8774 109.709 14.8833C109.703 14.8891 109.7 14.8972 109.7 14.9056V15.8518C109.7 15.8599 109.703 15.8679 109.708 15.8739C109.714 15.8798 109.721 15.8833 109.729 15.8834H109.872C109.88 15.8836 109.888 15.8803 109.894 15.8743C109.9 15.8683 109.902 15.8601 109.902 15.8518V15.1378L110.132 15.6566C110.135 15.6666 110.141 15.6754 110.149 15.6817C110.157 15.6865 110.167 15.6888 110.177 15.6883H110.291C110.301 15.689 110.311 15.6867 110.319 15.6817C110.327 15.6751 110.333 15.6664 110.337 15.6566L110.567 15.1378V15.8518C110.567 15.8603 110.57 15.8687 110.576 15.8747C110.582 15.8805 110.59 15.8837 110.599 15.8834H110.738C110.746 15.8837 110.754 15.8804 110.76 15.8744C110.766 15.8684 110.769 15.8601 110.768 15.8518V14.9056C110.768 14.8972 110.765 14.8891 110.759 14.8833C110.753 14.8774 110.745 14.8745 110.737 14.8751H110.488C110.478 14.8747 110.468 14.8769 110.459 14.8816C110.451 14.8868 110.445 14.8945 110.442 14.9034L110.227 15.4081Z" fill="#9AAA97"/>
</svg>
